<?xml version="1.0" encoding="utf-8"?>
<!-- Generator: Adobe Illustrator 27.2.0, SVG Export Plug-In . SVG Version: 6.00 Build 0)  -->
<svg version="1.1" id="Layer_1" xmlns="http://www.w3.org/2000/svg" xmlns:xlink="http://www.w3.org/1999/xlink" x="0px" y="0px"
	 viewBox="0 0 304 685.2" style="enable-background:new 0 0 304 685.2;" xml:space="preserve">
<style type="text/css">
	.st0{fill:#1F77B4;}
	.st1{fill:none;}
	.st2{enable-background:new    ;}
	.st3{fill:#FFFFFF;}
	.st4{font-family:'Arial-BoldMT';}
	.st5{font-size:16px;}
	.st6{font-size:12px;}
</style>
<rect id="path0" x="4" y="4.5" class="st0" width="190" height="325"/>
<rect x="4" y="4.5" class="st1" width="190" height="325"/>
<rect id="path1" x="196" y="4.5" class="st0" width="104" height="325"/>
<rect x="196" y="4.5" class="st1" width="104" height="325"/>
<rect id="path2" x="4" y="331.5" class="st0" width="296" height="238"/>
<rect x="4" y="331.5" class="st1" width="296" height="238"/>
<rect id="path3" x="4" y="571.5" class="st0" width="103" height="109"/>
<rect x="4" y="571.5" class="st1" width="103" height="109"/>
<rect id="path4" x="109" y="571.5" class="st0" width="191" height="109"/>
<rect x="109" y="571.5" class="st1" width="191" height="109"/>
<text transform="matrix(0.948 0 0 1 16.6299 30.1567)" class="st2"><tspan x="0" y="0" class="st3 st4 st5">A320-100/200</tspan><tspan x="0" y="15" class="st3 st4 st6">76,344,110 passengers</tspan><tspan x="0" y="30" class="st3 st4 st6">31.0% of all A320 in 2022</tspan></text>
<text transform="matrix(0.948 0 0 1 16.6299 355.5)" class="st2"><tspan x="0" y="0" class="st3 st4 st5">A321 LR</tspan><tspan x="0" y="15" class="st3 st4 st6">87,371,360 passengers</tspan><tspan x="0" y="30" class="st3 st4 st6">35.4% of all A320 in 2022</tspan></text>
<text transform="matrix(0.948 0 0 1 117.0894 591.8594)" class="st2"><tspan x="0" y="0" class="st3 st4 st5">A320-200neo</tspan><tspan x="0" y="15" class="st3 st4 st6">26,162,777 passengers</tspan><tspan x="0" y="30" class="st3 st4 st6">10.6% of all A320 in 2022</tspan></text>
<text transform="matrix(0.948 0 0 1 8.0801 591.8599)" class="st2"><tspan x="0" y="0" class="st3 st4 st5">A321-100neo</tspan><tspan x="0" y="15" class="st3 st4 st6">14,262,808</tspan><tspan x="0" y="30" class="st3 st4 st6">passengers</tspan><tspan x="0" y="45" class="st3 st4 st6">5.8% of all A320</tspan><tspan x="0" y="60" class="st3 st4 st6">in 2022</tspan></text>
<text transform="matrix(0.948 0 0 1 204.5 30.1567)" class="st2"><tspan x="0" y="0" class="st3 st4 st5">A319</tspan><tspan x="0" y="15" class="st3 st4 st6">42,414,011</tspan><tspan x="0" y="30" class="st3 st4 st6">passengers</tspan><tspan x="0" y="45" class="st3 st4 st6">17.2% of all A320</tspan><tspan x="0" y="60" class="st3 st4 st6">in 2022</tspan></text>
</svg>
