<?xml version="1.0" encoding="utf-8"?>
<!-- Generator: Adobe Illustrator 27.2.0, SVG Export Plug-In . SVG Version: 6.00 Build 0)  -->
<svg version="1.1" id="Layer_1" xmlns="http://www.w3.org/2000/svg" xmlns:xlink="http://www.w3.org/1999/xlink" x="0px" y="0px"
	 viewBox="0 0 805 600" style="enable-background:new 0 0 805 600;" xml:space="preserve">
<style type="text/css">
	.st0{fill:#FFFFFF;}
	.st1{fill:#2CA02C;}
	.st2{fill:#1F77B4;}
	.st3{fill:#FF7F0E;}
	.st4{fill:none;stroke:#000000;}
	.st5{font-family:'ArialMT';}
	.st6{font-size:10px;}
	.st7{fill:#7B7B7B;}
	.st8{font-family:'Arial-BoldMT';}
	.st9{font-size:12px;}
</style>
<rect id="backgorund" class="st0" width="805" height="600"/>
<g id="viz">
	<g transform="translate(0,0)">
		<g transform="translate(10,20)">
			<g>
				<path class="st1" d="M0,486.3c8.2-1.3,16.3-2.7,24.5-3.8s16.3-2.2,24.5-2.9s16.4-1.3,24.6-6.2s16.3-14.2,24.5-19
					s16.3-5.1,24.5-5.9c8.2-0.8,16.3-2.1,24.5-2.6c8.2-0.5,16.4-0.1,24.6-1.3c8.2-1.2,16.3-3.9,24.5-6.8c8.2-2.9,16.3-6,24.5-7.4
					c8.2-1.4,16.3-1.1,24.5,0c8.2,1.1,16.4,3.2,24.6,5.1s16.3,3.7,24.5,4.9s16.3,1.6,24.5-0.4c8.2-1.9,16.3-6.3,24.5-7.9
					c8.2-1.6,16.4-0.4,24.6,0.4c8.2,0.8,16.3,1.2,24.5-0.6s16.3-5.8,24.5-6.7c8.2-0.9,16.3,1.4,24.5,5c8.2,3.6,16.4,8.6,24.6,9.8
					c8.2,1.1,16.3-1.6,24.5-4.4s16.3-5.8,24.5-6.9s16.3-0.2,24.5,0.3c8.2,0.5,16.4,0.6,24.6-1.6s16.3-6.6,24.5-12.7
					s16.3-14.1,24.5-18.8s16.3-6.2,24.5-9.8c8.2-3.6,16.4-9.4,24.6-11.3s16.3,0.2,24.5-10.1s16.3-33,24.5-4.9
					c8.2,28,16.3,106.7,24.5,119.3s16.4-41,24.6-71.7s16.4-38.5,24.5-46.3V560c-8.2,0-16.3,0-24.5,0s-16.4,0-24.6,0s-16.3,0-24.5,0
					s-16.3,0-24.5,0s-16.3,0-24.5,0s-16.4,0-24.6,0s-16.3,0-24.5,0s-16.3,0-24.5,0s-16.3,0-24.5,0s-16.4,0-24.6,0s-16.3,0-24.5,0
					s-16.3,0-24.5,0s-16.3,0-24.5,0s-16.4,0-24.6,0c-8.2,0-16.3,0-24.5,0c-8.2,0-16.3,0-24.5,0s-16.3,0-24.5,0s-16.4,0-24.6,0
					c-8.2,0-16.3,0-24.5,0c-8.2,0-16.3,0-24.5,0s-16.3,0-24.5,0s-16.4,0-24.6,0c-8.2,0-16.3,0-24.5,0c-8.2,0-16.3,0-24.5,0
					s-16.3,0-24.5,0c-8.2,0-16.4,0-24.6,0c-8.2,0-16.3,0-24.5,0s-16.3,0-24.5,0s-16.3,0-24.5,0s-16.4,0-24.6,0s-16.3,0-24.5,0
					S8.2,560,0,560V486.3z"/>
				<path class="st2" d="M0,485.7c8.2-1.7,16.3-3.3,24.5-5.1c8.2-1.8,16.3-3.6,24.5-5s16.4-2.2,24.6-7.8S90,451.5,98.1,446
					s16.3-6,24.5-6.8c8.2-0.9,16.3-2.1,24.5-2.9c8.2-0.7,16.4-1,24.6-3.1c8.2-2.1,16.3-5.9,24.5-11.5s16.3-12.7,24.5-15.3
					c8.2-2.6,16.3-0.5,24.5,0c8.2,0.5,16.4-0.5,24.6-1.8s16.3-2.9,24.5-3.9c8.2-1.1,16.3-1.6,24.5-5.2c8.2-3.6,16.3-10.2,24.5-14.5
					c8.2-4.3,16.4-6.2,24.6-7.4s16.3-1.5,24.5-4.3s16.3-7.8,24.5-8.8c8.2-1,16.3,2.2,24.5,6.7c8.2,4.6,16.4,10.6,24.6,11.4
					c8.2,0.8,16.3-3.7,24.5-8.2s16.3-8.8,24.5-11s16.3-2.4,24.5-3.4s16.4-2.7,24.6-7c8.2-4.3,16.3-11.2,24.5-20.2
					c8.2-9,16.3-20.2,24.5-28.2c8.2-8,16.3-12.8,24.5-19.8s16.4-16.4,24.6-20.3s16.3-2.4,24.5-24s16.3-66.5,24.5-22.2
					S727.7,392,735.9,413s16.4-70.2,24.6-123.1s16.4-67.5,24.5-82.2v153.4c-8.2,7.8-16.3,15.6-24.5,46.3s-16.4,84.3-24.6,71.7
					s-16.3-91.3-24.5-119.3c-8.2-28-16.3-5.4-24.5,4.9s-16.3,8.2-24.5,10.1s-16.4,7.6-24.6,11.3c-8.2,3.6-16.3,5.1-24.5,9.8
					s-16.3,12.6-24.5,18.8s-16.3,10.6-24.5,12.7s-16.4,2.1-24.6,1.6c-8.2-0.5-16.3-1.3-24.5-0.3s-16.3,4-24.5,6.9
					s-16.3,5.6-24.5,4.4c-8.2-1.1-16.4-6.1-24.6-9.8c-8.2-3.6-16.3-5.9-24.5-5c-8.2,0.9-16.3,4.9-24.5,6.7s-16.3,1.4-24.5,0.6
					c-8.2-0.8-16.4-2-24.6-0.4c-8.2,1.6-16.3,5.9-24.5,7.9c-8.2,1.9-16.3,1.5-24.5,0.4s-16.3-3-24.5-4.9s-16.4-3.9-24.6-5.1
					c-8.2-1.1-16.3-1.4-24.5,0c-8.2,1.4-16.3,4.5-24.5,7.4c-8.2,2.9-16.3,5.6-24.5,6.8c-8.2,1.2-16.4,0.8-24.6,1.3
					c-8.2,0.5-16.3,1.8-24.5,2.6c-8.2,0.8-16.3,1.1-24.5,5.9s-16.3,14.1-24.5,19s-16.4,5.4-24.6,6.2s-16.3,1.8-24.5,2.9
					S8.2,485,0,486.3V485.7z"/>
				<path class="st3" d="M0,282c8.2,5,16.3,10.1,24.5,8.6s16.3-9.5,24.5-11.9s16.4,0.6,24.6-6.3s16.3-24,24.5-34.4
					s16.3-14.2,24.5-17.9s16.3-7.5,24.5-10c8.2-2.5,16.4-3.7,24.6-6.9c8.2-3.2,16.3-8.4,24.5-14s16.3-11.8,24.5-15.7
					c8.2-4,16.3-5.8,24.5,0c8.2,5.8,16.4,19.1,24.6,26.3s16.3,8.4,24.5,5.2s16.3-10.7,24.5-20.1c8.2-9.4,16.3-20.6,24.5-29.2
					c8.2-8.7,16.4-14.8,24.6-15.9s16.3,2.8,24.5-0.1s16.3-12.9,24.5-13.4c8.2-0.5,16.3,8.3,24.5,17.7c8.2,9.4,16.4,19.5,24.6,21.7
					s16.3-3.5,24.5-7.2s16.3-5.4,24.5-6.2s16.3-0.9,24.5-0.9s16.4,0,24.6-1.5c8.2-1.5,16.3-4.6,24.5-10.2
					c8.2-5.6,16.3-13.8,24.5-19.6s16.3-9,24.5-14.4c8.2-5.4,16.4-12.9,24.6-13.5s16.3,5.6,24.5-22s16.3-89,24.5-20.6
					s16.3,266.5,24.5,299.4s16.4-99.2,24.6-170.3s16.4-81.1,24.5-91.1v120.4c-8.2,14.6-16.3,29.2-24.5,82.2S744.1,434,735.9,413
					s-16.3-154.3-24.5-198.5s-16.3,0.6-24.5,22.2s-16.3,20.1-24.5,24S646,274,637.8,281s-16.3,11.8-24.5,19.8
					c-8.2,8-16.3,19.2-24.5,28.2c-8.2,9-16.3,15.9-24.5,20.2c-8.2,4.3-16.4,6-24.6,7s-16.3,1.1-24.5,3.4s-16.3,6.6-24.5,11
					s-16.3,8.9-24.5,8.2c-8.2-0.8-16.4-6.8-24.6-11.4c-8.2-4.6-16.3-7.7-24.5-6.7c-8.2,1-16.3,6.1-24.5,8.8s-16.3,3.1-24.5,4.3
					s-16.4,3.1-24.6,7.4c-8.2,4.3-16.3,10.9-24.5,14.5c-8.2,3.6-16.3,4.1-24.5,5.2c-8.2,1.1-16.3,2.6-24.5,3.9s-16.4,2.3-24.6,1.8
					c-8.2-0.5-16.3-2.6-24.5,0c-8.2,2.6-16.3,9.7-24.5,15.3s-16.3,9.4-24.5,11.5c-8.2,2.1-16.4,2.3-24.6,3.1
					c-8.2,0.7-16.3,2-24.5,2.9c-8.2,0.9-16.3,1.3-24.5,6.8s-16.3,16.1-24.5,21.7s-16.4,6.5-24.6,7.8s-16.3,3.2-24.5,5
					c-8.2,1.8-16.3,3.4-24.5,5.1V282z"/>
			</g>
			<g id="xAxis" transform="translate(0,560)">
				<path class="st4" d="M0.5,0.5h785"/>
				<g transform="translate(0.5,0)">
					<line class="st4" x1="0" y1="0" x2="0" y2="6"/>
					<text transform="matrix(1 0 0 1 -11.123 16.1)" class="st5 st6">1990</text>
				</g>
				<g transform="translate(123.13945927446954,0)">
					<line class="st4" x1="0" y1="0" x2="0" y2="6"/>
					<text transform="matrix(1 0 0 1 -11.123 16.1)" class="st5 st6">1995</text>
				</g>
				<g transform="translate(245.7789185489391,0)">
					<line class="st4" x1="0" y1="0" x2="0" y2="6"/>
					<text transform="matrix(1 0 0 1 -11.123 16.1)" class="st5 st6">2000</text>
				</g>
				<g transform="translate(368.4855407255305,0)">
					<line class="st4" x1="0" y1="0" x2="0" y2="6"/>
					<text transform="matrix(1 0 0 1 -11.123 16.1)" class="st5 st6">2005</text>
				</g>
				<g transform="translate(491.125,0)">
					<line class="st4" x1="0" y1="0" x2="0" y2="6"/>
					<text transform="matrix(1 0 0 1 -11.123 16.1)" class="st5 st6">2010</text>
				</g>
				<g transform="translate(613.7644592744696,0)">
					<line class="st4" x1="0" y1="0" x2="0" y2="6"/>
					<text transform="matrix(1 0 0 1 -11.123 16.1)" class="st5 st6">2015</text>
				</g>
				<g transform="translate(736.403918548939,0)">
					<line class="st4" x1="0" y1="0" x2="0" y2="6"/>
					<text transform="matrix(1 0 0 1 -11.123 16.1)" class="st5 st6">2020</text>
				</g>
			</g>
			<g id="yAxis">
				<path class="st4" d="M0.5,560.5V0.5"/>
				<g transform="translate(0,560.5)">
					<line class="st4" x1="0" y1="0" x2="-6" y2="0"/>
					<text transform="matrix(1 0 0 1 -14.5615 3.2)" class="st5 st6">0</text>
				</g>
				<g transform="translate(0,498.27777777777777)">
					<line class="st4" x1="0" y1="0" x2="-6" y2="0"/>
					<text transform="matrix(1 0 0 1 -64.6104 3.2)" class="st5 st6">100,000,000</text>
				</g>
				<g transform="translate(0,436.05555555555554)">
					<line class="st4" x1="0" y1="0" x2="-6" y2="0"/>
					<text transform="matrix(1 0 0 1 -64.6104 3.2)" class="st5 st6">200,000,000</text>
				</g>
				<g transform="translate(0,373.83333333333337)">
					<line class="st4" x1="0" y1="0" x2="-6" y2="0"/>
					<text transform="matrix(1 0 0 1 -64.6104 3.2)" class="st5 st6">300,000,000</text>
				</g>
				<g transform="translate(0,311.61111111111114)">
					<line class="st4" x1="0" y1="0" x2="-6" y2="0"/>
					<text transform="matrix(1 0 0 1 -64.6104 3.2)" class="st5 st6">400,000,000</text>
				</g>
				<g transform="translate(0,249.38888888888889)">
					<line class="st4" x1="0" y1="0" x2="-6" y2="0"/>
					<text transform="matrix(1 0 0 1 -64.6104 3.2)" class="st5 st6">500,000,000</text>
				</g>
				<g transform="translate(0,187.16666666666669)">
					<line class="st4" x1="0" y1="0" x2="-6" y2="0"/>
					<text transform="matrix(1 0 0 1 -64.6104 3.2)" class="st5 st6">600,000,000</text>
				</g>
				<g transform="translate(0,124.94444444444444)">
					<line class="st4" x1="0" y1="0" x2="-6" y2="0"/>
					<text transform="matrix(1 0 0 1 -64.6104 3.2)" class="st5 st6">700,000,000</text>
				</g>
				<g transform="translate(0,62.72222222222225)">
					<line class="st4" x1="0" y1="0" x2="-6" y2="0"/>
					<text transform="matrix(1 0 0 1 -64.6104 3.2)" class="st5 st6">800,000,000</text>
				</g>
				<g transform="translate(0,0.5)">
					<line class="st4" x1="0" y1="0" x2="-6" y2="0"/>
					<text transform="matrix(1 0 0 1 -64.6104 3.2)" class="st5 st6">900,000,000</text>
				</g>
			</g>
			<text transform="matrix(1 0 0 1 760.3086 556)" class="st7 st8 st9">year</text>
			<text transform="matrix(1 0 0 1 4 10.2949)" class="st7 st8 st9">total_pax</text>
			<g id="labels">
				<text transform="matrix(1 0 0 1 684.7147 459.9079)" class="st8 st6">Boeing 737</text>
				<text transform="matrix(1 0 0 1 727.0166 284.3835)" class="st8 st6">Airbus A320</text>
				<text transform="matrix(1 0 0 1 387.4759 243.2451)" class="st8 st6">All Other AC</text>
			</g>
		</g>
	</g>
</g>
</svg>
