<?xml version="1.0" encoding="utf-8"?>
<!-- Generator: Adobe Illustrator 27.2.0, SVG Export Plug-In . SVG Version: 6.00 Build 0)  -->
<svg version="1.1" id="Layer_1" xmlns="http://www.w3.org/2000/svg" xmlns:xlink="http://www.w3.org/1999/xlink" x="0px" y="0px"
	 viewBox="0 0 724 586" style="enable-background:new 0 0 724 586;" xml:space="preserve">
<style type="text/css">
	.st0{fill:#2CA02C;}
	.st1{fill:none;}
	.st2{enable-background:new    ;}
	.st3{fill:#FFFFFF;}
	.st4{font-family:'Arial-BoldMT';}
	.st5{font-size:16px;}
	.st6{font-size:12px;}
	.st7{font-size:11px;}
</style>
<rect id="path0" x="5" y="5" class="st0" width="534" height="223"/>
<rect x="5" y="5" class="st1" width="534" height="223"/>
<rect id="path1" x="5" y="231" class="st0" width="534" height="348"/>
<rect x="5" y="231" class="st1" width="534" height="348"/>
<rect id="path2" x="542" y="5" class="st0" width="177" height="404"/>
<rect x="542" y="5" class="st1" width="177" height="404"/>
<rect id="path3" x="542" y="412" class="st0" width="177" height="95"/>
<rect x="542" y="412" class="st1" width="177" height="95"/>
<rect id="path4" x="542" y="510" class="st0" width="177" height="69"/>
<rect x="542" y="510" class="st1" width="177" height="69"/>
<text transform="matrix(1 0 0 1 23.2002 28.7148)" class="st2"><tspan x="0" y="0" class="st3 st4 st5">737-700</tspan><tspan x="0" y="15" class="st3 st4 st6">93,612,436 passengers</tspan><tspan x="0" y="30" class="st3 st4 st6">29.3% of all 737 in 2022</tspan></text>
<text transform="matrix(1 0 0 1 23.2 254.2227)" class="st2"><tspan x="0" y="0" class="st3 st4 st5">737-800</tspan><tspan x="0" y="15" class="st3 st4 st6">145,398,174 passengers</tspan><tspan x="0" y="30" class="st3 st4 st6">45.5% of all 737 in 2022</tspan></text>
<text transform="matrix(1 0 0 1 549.0137 29.5947)" class="st2"><tspan x="0" y="0" class="st3 st4 st5">737-900</tspan><tspan x="0" y="15" class="st3 st4 st6">56,715,835 passengers</tspan><tspan x="0" y="30" class="st3 st4 st6">17.8% of all 737 in 2022</tspan></text>
<text transform="matrix(1 0 0 1 549.0137 428.5898)" class="st2"><tspan x="0" y="0" class="st3 st4 st7">737 MAX 8</tspan><tspan x="0" y="15" class="st3 st4 st7">13,647,138 passengers</tspan><tspan x="0" y="30" class="st3 st4 st7">4.3% of all 737 in 2022</tspan></text>
<text transform="matrix(1 0 0 1 549.0137 526.5898)" class="st2"><tspan x="0" y="0" class="st3 st4 st7">737 MAX 9</tspan><tspan x="0" y="15" class="st3 st4 st7">9,961,654 passengers</tspan><tspan x="0" y="30" class="st3 st4 st7">3.1% of all 737 in 2022</tspan></text>
</svg>
