<?xml version="1.0" encoding="utf-8"?>
<!-- Generator: Adobe Illustrator 27.2.0, SVG Export Plug-In . SVG Version: 6.00 Build 0)  -->
<svg version="1.1" id="Layer_1" xmlns="http://www.w3.org/2000/svg" xmlns:xlink="http://www.w3.org/1999/xlink" x="0px" y="0px"
	 viewBox="0 0 304 681" style="enable-background:new 0 0 304 681;" xml:space="preserve">
<style type="text/css">
	.st0{fill:#2CA02C;}
	.st1{fill:none;}
	.st2{enable-background:new    ;}
	.st3{fill:#FFFFFF;}
	.st4{font-family:'Arial-BoldMT';}
	.st5{font-size:16px;}
	.st6{font-size:12px;}
</style>
<rect id="path0" x="5" y="4" class="st0" width="294" height="195"/>
<rect x="5" y="4" class="st1" width="294" height="195"/>
<text transform="matrix(1 0 0 1 14.4473 27.9199)" class="st2"><tspan x="0" y="0" class="st3 st4 st5">737-700</tspan><tspan x="0" y="15" class="st3 st4 st6">93,612,436 passengers</tspan><tspan x="0" y="30" class="st3 st4 st6">29.3% of all 737 in 2022</tspan></text>
<rect id="path1" x="5" y="202" class="st0" width="294" height="306"/>
<rect x="5" y="202" class="st1" width="294" height="306"/>
<text transform="matrix(1 0 0 1 14.4473 225.0918)" class="st2"><tspan x="0" y="0" class="st3 st4 st5">737-800</tspan><tspan x="0" y="15" class="st3 st4 st6">145,398,174 passengers</tspan><tspan x="0" y="30" class="st3 st4 st6">45.5% of all 737 in 2022</tspan></text>
<rect id="path2" x="5" y="511" class="st0" width="207" height="167"/>
<rect x="5" y="511" class="st1" width="207" height="167"/>
<rect id="path3" x="215" y="511" class="st0" width="84" height="95"/>
<rect x="215" y="511" class="st1" width="84" height="95"/>
<rect id="path4" x="215" y="609" class="st0" width="84" height="69"/>
<rect x="215" y="609" class="st1" width="84" height="69"/>
<text transform="matrix(1 0 0 1 14.4473 533.252)" class="st2"><tspan x="0" y="0" class="st3 st4 st5">737-900</tspan><tspan x="0" y="15" class="st3 st4 st6">56,715,835 passengers</tspan><tspan x="0" y="30" class="st3 st4 st6">17.8% of all 737 in 2022</tspan></text>
<text transform="matrix(1 0 0 1 218.5039 528)" class="st3 st4 st6">737 MAX 8*</text>
<text transform="matrix(1 0 0 1 218.5042 624.625)" class="st3 st4 st6">737 MAX 9**</text>
</svg>
