<?xml version="1.0" encoding="utf-8"?>
<!-- Generator: Adobe Illustrator 27.2.0, SVG Export Plug-In . SVG Version: 6.00 Build 0)  -->
<svg version="1.1" id="Layer_1" xmlns="http://www.w3.org/2000/svg" xmlns:xlink="http://www.w3.org/1999/xlink" x="0px" y="0px"
	 viewBox="0 0 305 634" style="enable-background:new 0 0 305 634;" xml:space="preserve">
<style type="text/css">
	.st0{fill:#2CA02C;}
	.st1{fill:none;}
	.st2{fill:#1F77B4;}
	.st3{fill:#FF7F0E;}
	.st4{enable-background:new    ;}
	.st5{fill:#FFFFFF;}
	.st6{font-family:'Arial-BoldMT';}
	.st7{font-size:16px;}
	.st8{font-size:12px;}
</style>
<rect id="path0" x="5" y="6" class="st0" width="294" height="261"/>
<rect x="5" y="6" class="st1" width="294" height="261"/>
<rect id="path1" x="5" y="270" class="st2" width="294" height="200"/>
<rect x="5" y="270" class="st1" width="294" height="200"/>
<rect id="path2" x="5" y="473" class="st3" width="294" height="157"/>
<rect x="5" y="473" class="st1" width="294" height="157"/>
<g>
	<text transform="matrix(1 0 0 1 20.0593 33.1045)" class="st4"><tspan x="0" y="0" class="st5 st6 st7">Boeing 737</tspan><tspan x="0" y="18" class="st5 st6 st8">319,677,460 passengers</tspan><tspan x="0" y="36" class="st5 st6 st8">42.1% of total in 2022</tspan></text>
	<text transform="matrix(1 0 0 1 20.0593 296.9932)" class="st4"><tspan x="0" y="0" class="st5 st6 st7">Airbus A320</tspan><tspan x="0" y="18" class="st5 st6 st8">246,555,066 passengers</tspan><tspan x="0" y="36" class="st5 st6 st8">32.5% of total in 2022</tspan></text>
	<text transform="matrix(1 0 0 1 20.0593 499.8516)" class="st4"><tspan x="0" y="0" class="st5 st6 st7">Other types</tspan><tspan x="0" y="18" class="st5 st6 st8">193,532,429 passengers</tspan><tspan x="0" y="36" class="st5 st6 st8">25.5% of total in 2022</tspan></text>
</g>
</svg>
