<?xml version="1.0" encoding="utf-8"?>
<!-- Generator: Adobe Illustrator 27.2.0, SVG Export Plug-In . SVG Version: 6.00 Build 0)  -->
<svg version="1.1" id="Layer_1" xmlns="http://www.w3.org/2000/svg" xmlns:xlink="http://www.w3.org/1999/xlink" x="0px" y="0px"
	 viewBox="0 0 735 583" style="enable-background:new 0 0 735 583;" xml:space="preserve">
<style type="text/css">
	.st0{fill:#2CA02C;}
	.st1{fill:none;}
	.st2{fill:#1F77B4;}
	.st3{fill:#FF7F0E;}
	.st4{enable-background:new    ;}
	.st5{fill:#FFFFFF;}
	.st6{font-family:'Arial-BoldMT';}
	.st7{font-size:16px;}
	.st8{font-size:12px;}
</style>
<rect id="path0" x="5" y="5" class="st0" width="539" height="323"/>
<rect x="5" y="5" class="st1" width="539" height="323"/>
<rect id="path1" x="5" y="331" class="st2" width="539" height="248"/>
<rect x="5" y="331" class="st1" width="539" height="248"/>
<rect id="path2" x="547" y="5" class="st3" width="182" height="574"/>
<rect x="547" y="5" class="st1" width="182" height="574"/>
<text transform="matrix(1 0 0 1 15.0002 353.9316)" class="st4"><tspan x="0" y="0" class="st5 st6 st7">Airbus A320</tspan><tspan x="0" y="18" class="st5 st6 st8">246,555,066 passengers</tspan><tspan x="0" y="36" class="st5 st6 st8">32.5% of total in 2022</tspan></text>
<text transform="matrix(1 0 0 1 15 29)" class="st4"><tspan x="0" y="0" class="st5 st6 st7">Boeing 737</tspan><tspan x="0" y="18" class="st5 st6 st8">319,677,460 passengers</tspan><tspan x="0" y="36" class="st5 st6 st8">42.1% of total in 2022</tspan></text>
<text transform="matrix(1 0 0 1 556 29)" class="st4"><tspan x="0" y="0" class="st5 st6 st7">Other types</tspan><tspan x="0" y="18" class="st5 st6 st8">193,532,429 passengers</tspan><tspan x="0" y="36" class="st5 st6 st8">25.5% of total in 2022</tspan></text>
</svg>
